<svg width="175" height="46" fill="none" xmlns="http://www.w3.org/2000/svg"><path fill-rule="evenodd" clip-rule="evenodd" d="M25.544 45.122s-.557 1.296 1.784.739c2.341-.558 5.165-3.676 5.165-3.676 3.626-3.806 11.392-11.763 12.4-17.097 2.174-11.499-29.58-4.603-29.793-2.79-.066.559.884.362 4.027.1 3.143-.263 6.613-.198 8.643.098 2.03.295 5.206 1.115 6.352 2.46 1.145 1.346 1.997 2.659 1.31 5.284-2.118 8.084-8.89 11.785-9.888 14.882Z" fill="#FFCF8B"/><path fill-rule="evenodd" clip-rule="evenodd" d="M43.488 5.306s-.017.623-2.98.295S29.246 4.37 22.6 5.584C15.953 6.8 11.173 9.03 10.52 15.396c-.656 6.366 4.132 15.988 4.132 15.988s3.659 7.13 4.772 8.804c1.113 1.674 1.866 2.92 2.063 4.102.196 1.181-.622 2.264-3.045 1.083-2.423-1.181-4.682-4.233-5.631-5.644-.95-1.411-5.6-9.418-7.662-13.75C3.086 21.648-1.76 11.015.663 5.765 3.086.515 10.91.153 12.71.088c1.8-.066 8.447-.493 19.317 1.378 10.87 1.87 11.164 3.019 11.46 3.84Z" fill="#D39742"/><path d="M60.015 21.104c.842-.08 1.582-.12 2.22-.12 1.995 0 3.546.471 4.652 1.412 1.114.94 1.671 2.292 1.671 4.054 0 1.619-.557 2.91-1.671 3.876-1.106.956-2.657 1.435-4.651 1.435H57V14.25h10.331v2.691h-7.316v4.162Zm0 8.062c.631.047 1.18.071 1.648.071 1.34 0 2.298-.255 2.875-.765.584-.51.876-1.244.876-2.2 0-.838-.264-1.512-.794-2.022-.53-.51-1.485-.765-2.863-.765-.546 0-1.126.031-1.742.095v5.586ZM84.3 14.25c-.966 3.572-2.181 6.857-3.646 9.855-1.457 2.998-2.86 5.051-4.207 6.16-1.34 1.108-3.113 1.662-5.318 1.662V29.07c.094.016.277.024.55.024.997 0 1.819-.184 2.465-.55.647-.367 1.224-.922 1.73-1.663l-6.135-12.63h3.377l4.5 10.19c1.386-2.886 2.566-6.283 3.54-10.19H84.3Zm18.184 17.51h-2.945l-1.764-9.425L94.327 32h-1.075l-3.47-9.664-1.847 9.425h-2.922l3.447-17.51h1.601l3.717 11.805 3.611-11.805h1.601l3.494 17.51Zm5.376-14.771v4.114h5.668v2.643h-5.668v5.251h7.749v2.763h-10.787V14.25h10.927v2.739h-7.889Zm13.791 8.324v6.447h-3.039V14.25c2.236-.087 3.424-.131 3.564-.131 2.665 0 4.628.422 5.891 1.267 1.27.846 1.904 2.173 1.904 3.983 0 4.018-2.314 6.028-6.942 6.028-.35 0-.81-.028-1.378-.084Zm0-8.372v5.61c.522.047.927.071 1.215.071 1.387 0 2.4-.23 3.039-.693.638-.471.958-1.244.958-2.32 0-1.81-1.43-2.716-4.289-2.716-.429 0-.737.016-.923.048Zm21.106 14.819-1.274-3.552h-5.867l-1.168 3.552h-3.401L137.895 14h1.321l6.883 17.76h-3.342Zm-4.219-12.39-2.057 6.458h4.114l-2.057-6.459Zm19.283 12.39v-7.882h-6.814v7.882h-3.038V14.25h3.038v6.853h6.814v-6.853h2.991v17.51h-2.991ZM175 16.99h-7.584v14.77h-3.062V14.252H175v2.739Z" fill="#000"/></svg>