<svg width="50" height="50" fill="none" xmlns="http://www.w3.org/2000/svg"><rect width="50" height="50" rx="12" fill="#4872A3"/><path d="M10.238 16.001h3.61c1.03 0 1.278.421 1.608 1.431 1.857 5.242 4.744 9.832 5.982 9.832.454 0 .66-.21.66-1.41v-5.411c-.077-1.553-.613-2.224-1.01-2.72-.243-.305-.434-.544-.434-.88a.912.912 0 0 1 .296-.614c.173-.158.4-.24.632-.228h5.673c.763 0 1.031.421 1.031 1.347v7.368c0 .78.103 1.053.557 1.053.454 0 .846-.274 1.692-1.137a31.018 31.018 0 0 0 4.434-7.536c.121-.319.338-.59.62-.776.282-.185.613-.274.948-.256h3.61c1.093 0 1.32.569 1.093 1.348a46.17 46.17 0 0 1-4.868 8.42c-.371.61-.433 1.095 0 1.642.19.24.532.583.928.979.504.505 1.094 1.096 1.568 1.674a15.635 15.635 0 0 1 3.052 4.315c.29 1.032-.226 1.558-1.258 1.558h-3.61c-.968 0-1.45-.548-2.498-1.74h-.001a44.668 44.668 0 0 0-1.729-1.88C30.679 30.273 29.957 30 29.235 30s-.949.21-.949 1.263v3.305c0 .906-.289 1.432-2.578 1.432a13.926 13.926 0 0 1-6.3-2.017 14.27 14.27 0 0 1-4.715-4.72C10.217 22.864 9 18.023 9 17.034 9 16.506 9.206 16 10.238 16Z" fill="#fff"/></svg>