<svg width="50" height="50" fill="none" xmlns="http://www.w3.org/2000/svg"><rect width="50" height="50" rx="12" fill="url(#a)"/><path fill-rule="evenodd" clip-rule="evenodd" d="M10.402 33.27 8 42l8.974-2.342a16.975 16.975 0 0 0 8.09 2.05h.007c9.33 0 16.925-7.559 16.929-16.848a16.816 16.816 0 0 0-4.956-11.921A16.967 16.967 0 0 0 25.071 8C15.739 8 8.146 15.557 8.142 24.847a16.759 16.759 0 0 0 2.26 8.423Zm7.502 3.64-.514-.303-5.325 1.39 1.421-5.167-.335-.53a13.92 13.92 0 0 1-2.15-7.452c.003-7.721 6.314-14.002 14.076-14.002 7.77.003 14.068 6.277 14.065 14.013-.004 7.722-6.316 14.004-14.07 14.004h-.006c-2.52 0-4.993-.674-7.162-1.952Z" fill="url(#b)"/><path fill-rule="evenodd" clip-rule="evenodd" d="M20.84 17.804c-.316-.701-.65-.715-.951-.727-.247-.01-.53-.01-.811-.01a1.557 1.557 0 0 0-1.128.527c-.388.421-1.481 1.44-1.481 3.511 0 2.072 1.516 4.075 1.727 4.356.212.281 2.926 4.668 7.226 6.356 3.573 1.403 4.3 1.124 5.076 1.054.775-.07 2.502-1.019 2.855-2.002.352-.984.352-1.826.246-2.002-.105-.176-.387-.28-.81-.492-.423-.21-2.503-1.229-2.89-1.37-.389-.14-.67-.21-.953.212-.282.421-1.092 1.37-1.339 1.65-.247.28-.493.316-.916.106-.424-.21-1.786-.656-3.402-2.09-1.257-1.116-2.106-2.495-2.353-2.916-.247-.422-.026-.65.186-.86.19-.188.423-.491.634-.737.212-.246.282-.421.423-.702.14-.28.07-.527-.035-.738-.106-.21-.928-2.293-1.304-3.126Z" fill="#fff"/><defs><linearGradient id="a" x1="50" y1="50" x2="50" y2="0" gradientUnits="userSpaceOnUse"><stop stop-color="#20B038"/><stop offset="1" stop-color="#60D66A"/></linearGradient><linearGradient id="b" x1="42" y1="42" x2="42" y2="8" gradientUnits="userSpaceOnUse"><stop stop-color="#F9F9F9"/><stop offset="1" stop-color="#fff"/></linearGradient></defs></svg>